<?xml version="1.0" encoding="UTF-8" standalone="no"?><svg xmlns="http://www.w3.org/2000/svg" xmlns:xlink="http://www.w3.org/1999/xlink" fill="#d9d9d9" height="351.5" preserveAspectRatio="xMidYMid meet" version="1" viewBox="-0.5 -0.4 316.1 351.5" width="316.1" zoomAndPan="magnify"><g data-name="Layer 2"><g data-name="Layer 1" id="change1_1"><path d="M0,10c.24,2.48,6.15,61.72,41.13,128.81,20.59,39.5,47,73.45,78.58,100.9,39.36,34.25,86.76,58.36,140.88,71.68l-7.34,32.42a5.68,5.68,0,0,0,8.57,6.06l48.49-30.58a8.72,8.72,0,0,0,2.73-12l-30.59-48.49a5.68,5.68,0,0,0-10.34,1.77l-7.5,33.11C171.77,270.66,102.1,215.94,57.6,131,24.08,66.94,18.2,8.81,18.14,8.23A9.09,9.09,0,0,0,0,10Z"/></g></g></svg>